<?xml version="1.0"?>
<svg xmlns="http://www.w3.org/2000/svg" xmlns:xlink="http://www.w3.org/1999/xlink" xmlns:svgjs="http://svgjs.com/svgjs" version="1.1" width="512" height="512" x="0" y="0" viewBox="0 0 492.8 492.8" style="enable-background:new 0 0 512 512" xml:space="preserve" class=""><g>
<path xmlns="http://www.w3.org/2000/svg" style="" d="M480,230.4H262.4V12.8c0-7.2-8.8-12.8-16-12.8c-7.2,0-16,5.6-16,12.8v217.6H12.8  c-7.2,0-12.8,8.8-12.8,16c0,7.2,5.6,16,12.8,16h217.6V480c0,7.2,8.8,12.8,16,12.8c7.2,0,16-5.6,16-12.8V262.4H480  c7.2,0,12.8-8.8,12.8-16S486.4,230.4,480,230.4z" fill="#c9c6b1" data-original="#c9c6b1"/>
<polygon xmlns="http://www.w3.org/2000/svg" style="" points="449.6,154.4 409.6,113.6 449.6,73.6 416.8,40.8 376.8,80.8 336,40.8 303.2,73.6 344,113.6   303.2,154.4 336,187.2 376.8,146.4 416.8,187.2 " fill="#c43d27" data-original="#c43d27" class=""/>
<g xmlns="http://www.w3.org/2000/svg">
	<polyline style="" points="336,187.2 376.8,146.4 416.8,187.2 449.6,154.4 409.6,113.6 449.6,73.6 416.8,40.8    376.8,80.8  " fill="#991608" data-original="#991608" class=""/>
</g>
<path xmlns="http://www.w3.org/2000/svg" style="" d="M194.4,376.8c0,41.6-33.6,75.2-75.2,75.2S44,418.4,44,376.8s33.6-75.2,75.2-75.2  C160,300.8,194.4,334.4,194.4,376.8z" fill="#07bed6" data-original="#07bed6" class=""/>
<path xmlns="http://www.w3.org/2000/svg" style="" d="M172,323.2c29.6,29.6,29.6,77.6,0,107.2s-77.6,29.6-107.2,0" fill="#00a1ad" data-original="#00a1ad" class=""/>
<path xmlns="http://www.w3.org/2000/svg" style="" d="M480,230.4H262.4l-32,32V480c0,7.2,8.8,12.8,16,12.8c7.2,0,16-5.6,16-12.8V262.4H480  c7.2,0,12.8-8.8,12.8-16S486.4,230.4,480,230.4z" fill="#b2af9a" data-original="#b2af9a" class=""/>
<g xmlns="http://www.w3.org/2000/svg">
</g>
<g xmlns="http://www.w3.org/2000/svg">
</g>
<g xmlns="http://www.w3.org/2000/svg">
</g>
<g xmlns="http://www.w3.org/2000/svg">
</g>
<g xmlns="http://www.w3.org/2000/svg">
</g>
<g xmlns="http://www.w3.org/2000/svg">
</g>
<g xmlns="http://www.w3.org/2000/svg">
</g>
<g xmlns="http://www.w3.org/2000/svg">
</g>
<g xmlns="http://www.w3.org/2000/svg">
</g>
<g xmlns="http://www.w3.org/2000/svg">
</g>
<g xmlns="http://www.w3.org/2000/svg">
</g>
<g xmlns="http://www.w3.org/2000/svg">
</g>
<g xmlns="http://www.w3.org/2000/svg">
</g>
<g xmlns="http://www.w3.org/2000/svg">
</g>
<g xmlns="http://www.w3.org/2000/svg">
</g>
</g></svg>
